<svg width="94" height="57" viewBox="0 0 94 57" fill="none" xmlns="http://www.w3.org/2000/svg">
<path d="M28.314 0.564453C13.0133 0.564453 0.5625 13.0133 0.5625 28.3121C0.5625 43.6108 13.0113 56.0636 28.314 56.0636H65.6878C80.9885 56.0636 93.4354 43.6147 93.4354 28.3121C93.4354 13.0094 80.9905 0.564453 65.6898 0.564453H28.316H28.314Z" fill="white"/>
<path d="M65.6898 56.6262H28.316C12.7008 56.6262 0 43.9254 0 28.3121C0 12.6988 12.7008 0 28.3141 0H65.6879C81.2992 0 94 12.7008 94 28.3121C94 43.9234 81.2992 56.6262 65.6879 56.6262M28.3141 0.564524C13.0133 0.564524 0.56257 13.0133 0.56257 28.3121C0.56257 43.6109 13.0114 56.0636 28.3141 56.0636H65.6879C80.9886 56.0636 93.4355 43.6148 93.4355 28.3121C93.4355 13.0094 80.9906 0.564524 65.6898 0.564524H28.316H28.3141Z" fill="white"/>
<path d="M72.2222 26.6187L84.6495 41.3998C87.224 37.6806 88.7359 33.1703 88.7359 28.3142C88.7359 23.1886 87.0521 18.4477 84.21 14.6152L72.2222 26.6206V26.6187Z" fill="#E31F28"/>
<path d="M37.0047 13.367C46.2852 13.367 53.2783 15.7286 53.999 23.5479L63.7659 13.365H83.2156C78.9846 8.41323 72.6967 5.26636 65.688 5.26636H28.3142C21.3036 5.26636 15.0137 8.41128 10.7827 13.365H37.0028L37.0047 13.367Z" fill="#E31F28"/>
<path d="M21.7138 23.2234L18.3989 32.3359H31.7717C35.7253 32.3359 36.9208 30.6989 37.8056 27.5481C38.6808 24.4325 36.4813 23.2234 33.7798 23.2234H21.7138Z" fill="#E31F28"/>
<path d="M63.8475 42.642L53.5161 29.5876C51.6057 38.4891 45.353 42.642 33.6308 42.642H10.2725C14.4976 47.9513 21.016 51.3638 28.3138 51.3638H65.6876C72.9854 51.3638 79.4998 47.9552 83.725 42.644H63.8455L63.8475 42.642Z" fill="#E31F28"/>
</svg>
